PathFileType	4	(X/Y/Z)	./resultDataOpenSim/trcMotMarkerGrf/sub10/qtm-02-03.trc
DataRate	CameraRate	NumFrames	NumMarkers	Units	OrigDataRate	OrigDataStartFrame	OrigNumFrames
250.000000	250.000000	11	24	m	250.000000	179	477
Frame#	Time	L.Toe.Tip			R.Toe.Tip			L.Ankle.Lat			R.Ankle.Lat			L.Ankle.Med			R.Ankle.Med			L.Heel			R.Heel			L.Knee.Lat			R.Knee.Lat			L.Knee.Med			R.Knee.Med			L.Thigh.Upper			R.Thigh.Upper			L.ASIS			R.ASIS			V.Sacral			L.Acromium			R.Acromium			C7			L.Elbow			R.Elbow			L.Wrist.Lat			R.Wrist.Lat
		X1	Y1	Z1	X2	Y2	Z2	X3	Y3	Z3	X4	Y4	Z4	X5	Y5	Z5	X6	Y6	Z6	X7	Y7	Z7	X8	Y8	Z8	X9	Y9	Z9	X10	Y10	Z10	X11	Y11	Z11	X12	Y12	Z12	X13	Y13	Z13	X14	Y14	Z14	X15	Y15	Z15	X16	Y16	Z16	X17	Y17	Z17	X18	Y18	Z18	X19	Y19	Z19	X20	Y20	Z20	X21	Y21	Z21	X22	Y22	Z22	X23	Y23	Z23	X24	Y24	Z24

179	0.712	0.080511892	0.024248995	-0.075579626	-0.70894929	0.039193171	0.042986073	-0.052126126	0.042179229	-0.11049469	-0.80010791	0.14482576	0.064328259	-0.049462588	0.066530169	-0.027206035	-0.7589115	0.14241709	-0.014987862	-0.11648347	0.010359346	-0.069381709	-0.84706297	0.15362385	0.0094101851	-0.079377808	0.43240993	-0.14440272	-0.49947879	0.4022166	0.10043342	-0.080672195	0.41034692	-0.023265677	-0.45559338	0.38660765	-0.019969104	-0.22139089	0.78626161	-0.20849754	-0.38705292	0.78412644	0.14951696	-0.20877498	0.89036744	-0.12205419	-0.28019567	0.86870065	0.11300969	-0.43314988	0.88373433	-0.07504977	-0.32662333	1.3474678	-0.17807422	-0.35390973	1.3412961	0.14822719	-0.42545621	1.3690067	-0.026757708	-0.46070584	1.04259	-0.22768248	-0.36349864	0.98018548	0.20030744	-0.43199117	0.80856831	-0.28086059	-0.12548848	0.89821968	0.21012053
180	0.716	0.081707121	0.023181772	-0.076224315	-0.7077201	0.038987042	0.042747094	-0.051257311	0.042302234	-0.11034286	-0.79303562	0.14935112	0.064148078	-0.048398122	0.066640751	-0.027231716	-0.75096923	0.14476785	-0.014291845	-0.11601011	0.010923661	-0.069137946	-0.83869893	0.15990292	0.0087988528	-0.071818596	0.43315874	-0.1446165	-0.48876074	0.40145754	0.1007943	-0.07360514	0.41183861	-0.023436228	-0.44489338	0.38547071	-0.019389688	-0.21429722	0.78760357	-0.20933346	-0.3782542	0.78302559	0.14927857	-0.20149012	0.89133326	-0.12290661	-0.2716435	0.8684204	0.11167893	-0.42572881	0.88419893	-0.07492336	-0.32034544	1.3475715	-0.17853673	-0.34698732	1.3415815	0.14794188	-0.4186398	1.3690349	-0.026816919	-0.45091303	1.0413082	-0.22903785	-0.35876917	0.98047646	0.19887538	-0.42445753	0.80789533	-0.28108212	-0.1213983	0.89663425	0.21019154
181	0.72	0.082822149	0.0221696	-0.076655984	-0.70635439	0.038751861	0.042574357	-0.050440624	0.042304054	-0.11021504	-0.78532016	0.15378049	0.063963661	-0.047353984	0.066718566	-0.02720927	-0.74250397	0.14687333	-0.01354471	-0.11560176	0.011368554	-0.069008305	-0.829811	0.16612674	0.0081097381	-0.064728984	0.43361932	-0.14494144	-0.47766679	0.40060341	0.1012396	-0.066571664	0.41319519	-0.023721403	-0.43373437	0.38409572	-0.018670035	-0.20729325	0.78884754	-0.21019769	-0.36946836	0.78194857	0.14904901	-0.19427852	0.89233731	-0.12375358	-0.26313178	0.86817111	0.1103216	-0.41821045	0.88462013	-0.074605185	-0.31400698	1.3477151	-0.17897456	-0.34001361	1.3418574	0.14762215	-0.41182818	1.3690555	-0.026886598	-0.44230981	1.0405422	-0.22905707	-0.35412833	0.98084082	0.19752513	-0.41654677	0.80725556	-0.28133607	-0.11744862	0.89492901	0.21027586
182	0.724	0.083738649	0.021303352	-0.076721597	-0.70480687	0.038522005	0.042467998	-0.049728061	0.042194375	-0.11011509	-0.77709064	0.15811542	0.063808525	-0.046623295	0.066720806	-0.02723667	-0.73366048	0.14890097	-0.012825941	-0.11522589	0.011647434	-0.069038555	-0.82039143	0.17228295	0.0074246367	-0.058208176	0.43377948	-0.14537308	-0.46624453	0.39965159	0.10175904	-0.059569248	0.41439617	-0.024122744	-0.42210487	0.38244307	-0.017835104	-0.200367	0.7899947	-0.21109551	-0.36068282	0.78088602	0.14877663	-0.18724884	0.89342033	-0.12454023	-0.25472053	0.86791808	0.10897605	-0.41059336	0.88496489	-0.074189902	-0.30756983	1.3478959	-0.17939843	-0.33299395	1.3421107	0.1472729	-0.40501372	1.369072	-0.026977983	-0.43416716	1.0399365	-0.22808652	-0.34955149	0.98127207	0.19629065	-0.40824836	0.80669308	-0.28167565	-0.11362779	0.89309915	0.21037227
183	0.728	0.084429732	0.020601391	-0.076490854	-0.70297899	0.038391	0.042391978	-0.04913779	0.042030057	-0.11004082	-0.7684843	0.16239312	0.063684096	-0.046296344	0.066638151	-0.027348127	-0.72459686	0.15105202	-0.012211904	-0.11486668	0.011781429	-0.069196083	-0.81054173	0.17834983	0.006834548	-0.052316927	0.43365957	-0.14588492	-0.45455116	0.39860198	0.10233425	-0.052635248	0.41541438	-0.024628218	-0.41002124	0.38049025	-0.016898426	-0.19351641	0.79105275	-0.21203395	-0.35189947	0.77982375	0.14844603	-0.18042108	0.89458957	-0.12526629	-0.24643185	0.86764281	0.10765243	-0.40296393	0.88525046	-0.073789737	-0.30101273	1.3481076	-0.17981003	-0.32593737	1.3423287	0.14689473	-0.39819232	1.3690863	-0.027095114	-0.42601401	1.0393096	-0.22662657	-0.34499396	0.98177174	0.19517513	-0.39957947	0.80623119	-0.2821202	-0.10991734	0.89113381	0.21047699
184	0.732	0.084949477	0.020017109	-0.076150785	-0.70074364	0.038529517	0.042285847	-0.048649585	0.041866925	-0.10997689	-0.75963955	0.16664779	0.063553491	-0.046134053	0.066508863	-0.027424408	-0.71540011	0.15342789	-0.011698914	-0.1145541	0.011842536	-0.069398571	-0.80037801	0.18431697	0.0063766208	-0.04704227	0.43331233	-0.14643667	-0.44263468	0.39744987	0.10297169	-0.045884828	0.41621302	-0.025230657	-0.39753713	0.37823826	-0.015865414	-0.18674524	0.79203345	-0.21301082	-0.34312316	0.7787495	0.1480497	-0.17375525	0.89582262	-0.12596183	-0.23823419	0.8673543	0.10632935	-0.39549999	0.88555692	-0.073487773	-0.29435953	1.3483437	-0.18020518	-0.31885945	1.3425054	0.14648899	-0.39136213	1.3691002	-0.027235255	-0.41765982	1.0386514	-0.22515486	-0.34040491	0.98233809	0.19413968	-0.39056632	0.80587547	-0.28267596	-0.10629917	0.88902152	0.21058666
185	0.736	0.085380171	0.019498849	-0.075854419	-0.69801484	0.039131106	0.042106607	-0.048223133	0.04172799	-0.10989623	-0.75067728	0.17087894	0.063381762	-0.045823266	0.066373831	-0.027322262	-0.70605282	0.15598408	-0.011209349	-0.11434769	0.011911208	-0.069551251	-0.78994272	0.19019434	0.0060363045	-0.0423099	0.43280244	-0.14698668	-0.43052994	0.3961933	0.10371199	-0.039504675	0.41675225	-0.025917212	-0.38472152	0.37571334	-0.014751713	-0.18006087	0.79295646	-0.21401489	-0.33436021	0.77765635	0.14757605	-0.16718828	0.89707784	-0.12666481	-0.23008865	0.86707028	0.10498804	-0.3883825	0.88597011	-0.073325398	-0.28764793	1.3486017	-0.18058319	-0.31179295	1.3426417	0.14606476	-0.38452254	1.3691169	-0.027399328	-0.40907962	1.03801	-0.22394643	-0.33576253	0.98294273	0.19313182	-0.38127532	0.80558778	-0.28327598	-0.10277517	0.88676932	0.21070347
186	0.74	0.085778752	0.01902695	-0.075629122	-0.69479586	0.040301628	0.041868462	-0.04782338	0.041608756	-0.10977392	-0.74160942	0.17505241	0.063188991	-0.045278181	0.066229553	-0.027027031	-0.69648789	0.15861811	-0.010684667	-0.11425834	0.012023322	-0.069603515	-0.77919855	0.19600716	0.0057746686	-0.038032163	0.43218768	-0.14749642	-0.41827758	0.39484261	0.10460024	-0.033669483	0.4169957	-0.026617743	-0.37162226	0.37295633	-0.013581965	-0.17347529	0.79384676	-0.21504001	-0.3256184	0.77654558	0.14701919	-0.16065192	0.89830904	-0.12741748	-0.22198765	0.86680039	0.10363528	-0.38164094	0.88650082	-0.073255055	-0.28088289	1.3488839	-0.18094825	-0.30478223	1.3427435	0.14563242	-0.3776787	1.3691433	-0.027604656	-0.40031152	1.0374213	-0.22306679	-0.33108302	0.98352552	0.19212757	-0.3718219	0.8052813	-0.28376932	-0.0993677	0.88440614	0.21083485
187	0.744	0.086158558	0.018608222	-0.075407902	-0.69115807	0.041993092	0.041639345	-0.047431072	0.041500798	-0.10960214	-0.73229862	0.17913891	0.063046557	-0.044658418	0.066040292	-0.026648329	-0.68665534	0.16124963	-0.010133094	-0.11422003	0.012158298	-0.069570823	-0.76806843	0.20178738	0.0055563457	-0.034140429	0.43151672	-0.14792903	-0.40593243	0.39342154	0.10564862	-0.028461054	0.41693107	-0.027189831	-0.358249	0.37001453	-0.012375305	-0.16699945	0.79472715	-0.21609098	-0.31690814	0.77542585	0.14638992	-0.15411261	0.89948912	-0.12824735	-0.21395102	0.86654595	0.10229503	-0.3751428	0.88709425	-0.073202787	-0.27404412	1.3491959	-0.18130619	-0.29784748	1.3428199	0.14519345	-0.37084545	1.3691925	-0.027875723	-0.39139762	1.0368975	-0.22248018	-0.32640794	0.9840361	0.19115316	-0.36228019	0.80489066	-0.28406371	-0.096090048	0.88196242	0.21098585
188	0.748	0.086509692	0.018251358	-0.075132471	-0.68716503	0.044053035	0.041491048	-0.047042087	0.041404592	-0.10939623	-0.72253514	0.18316579	0.063019849	-0.044173228	0.065782198	-0.026314897	-0.6765306	0.16382426	-0.0095880807	-0.11416303	0.012283873	-0.069495132	-0.75648523	0.20756259	0.0053776097	-0.030590512	0.43083643	-0.14825347	-0.39355014	0.39196838	0.10679935	-0.023888252	0.41658643	-0.027506049	-0.34459981	0.3669469	-0.011136136	-0.16063862	0.79561517	-0.21717223	-0.30824414	0.77430634	0.14571076	-0.14760097	0.90061336	-0.12915586	-0.20600598	0.86630617	0.10099064	-0.36878553	0.88770772	-0.073327509	-0.26712054	1.3495434	-0.18166557	-0.29096627	1.3428824	0.14475254	-0.36404598	1.3692845	-0.028198332	-0.38236674	1.0364376	-0.22213574	-0.32178236	0.98447336	0.19025354	-0.35259416	0.80444999	-0.28426082	-0.092923418	0.87945394	0.21115255
189	0.752	0.086823357	0.017953352	-0.074816433	-0.68279553	0.046340993	0.04144674	-0.046672038	0.041321917	-0.10918918	-0.71215281	0.1872061	0.063136789	-0.043919936	0.06546078	-0.026095592	-0.66610016	0.16631384	-0.0090731585	-0.11407237	0.012390441	-0.069402538	-0.74444704	0.2133437	0.0052833742	-0.027348843	0.43019685	-0.14844989	-0.38117249	0.39053167	0.10792062	-0.01995136	0.41601553	-0.027551953	-0.33071979	0.36383071	-0.0098614632	-0.15439583	0.79652321	-0.21827945	-0.29965728	0.77319921	0.14501557	-0.14117439	0.90168088	-0.13013445	-0.19817713	0.86608537	0.099738196	-0.36261625	0.88830977	-0.074063896	-0.26012339	1.3499287	-0.18203563	-0.28409766	1.342945	0.14433062	-0.35729348	1.369445	-0.028499909	-0.37323782	1.0360382	-0.22199805	-0.31721116	0.98487671	0.18941673	-0.34263587	0.80407928	-0.28458001	-0.089833771	0.876885	0.21132942
